<?xml version="1.0" encoding="utf-8"?><!DOCTYPE svg PUBLIC "-//W3C//DTD SVG 1.1//EN" "http://www.w3.org/Graphics/SVG/1.1/DTD/svg11.dtd"><svg id="clear" width="128" height="128" style="width:128px;height:128px;" version="1.1" xmlns="http://www.w3.org/2000/svg" viewBox="0 0 1024 1024" enable-background="new 0 0 1024 1024" xml:space="preserve"><path fill="#666" d="M512 1024 q215.58 -5.86 360.86 -151.14 q145.28 -145.28 151.14 -360.86 q-5.86 -215.58 -151.14 -360.86 q-145.28 -145.28 -360.86 -151.14 q-216.75 5.86 -361.44 151.14 q-144.69 145.28 -150.56 360.86 q5.86 215.58 151.14 360.86 q145.28 145.28 360.86 151.14 ZM331.57 734.61 q-17.57 0 -29.88 -12.3 q-12.31 -12.31 -12.31 -29.88 q0 -17.57 12.89 -29.29 l149.97 -151.14 l-149.97 -149.97 q-12.89 -11.71 -12.89 -29.28 q0 -17.57 12.31 -29.29 q12.31 -11.72 29.88 -11.72 q17.57 0 29.29 11.72 l151.14 149.97 l151.14 -149.97 q12.89 -14.06 29.88 -13.47 q16.99 0.58 28.71 12.3 q11.72 11.72 12.31 29.29 q0.58 17.57 -12.31 29.29 l-149.97 151.14 l149.97 149.97 q11.72 11.71 11.72 29.87 q0 18.16 -12.31 30.47 q-12.3 12.3 -29.88 12.3 q-17.58 0 -29.28 -11.72 l-149.97 -151.14 l-149.97 151.14 q-12.89 11.72 -30.46 11.72 Z"/></svg>